<svg width="77" height="60" viewBox="0 0 77 60" fill="none" xmlns="http://www.w3.org/2000/svg">
<path d="M28.8476 -3.41978e-06C30.5986 -3.57286e-06 31.4741 0.955872 31.4741 2.86764L31.4741 24.4853C31.4741 25.3676 31.2553 26.1765 30.8175 26.9118L12.2132 56.9118C11.4836 58.0882 10.5352 58.8971 9.36783 59.3382C8.2005 59.7794 7.10612 60 6.08471 60L2.36385 60C1.48835 60 0.831734 59.6324 0.393982 58.8971C-0.0437624 58.1618 -0.116722 57.4265 0.17511 56.6912L9.80558 35.0735C10.3892 33.4559 10.6081 32.2059 10.4622 31.3235C10.1704 30.5882 9.44079 30.1471 8.27347 30L4.55259 29.7794C3.09343 29.6324 2.14498 29.2647 1.70723 28.6765C1.12356 28.2353 0.831731 27.4265 0.831731 26.25L0.831729 3.30882C0.831729 1.10293 1.78018 -1.05347e-06 3.6771 -1.2193e-06L28.8476 -3.41978e-06ZM74.3735 -7.39978e-06C76.1245 -7.55286e-06 77 0.955868 77 2.86763L77 24.4853C77 25.3676 76.7811 26.1765 76.3434 26.9118L57.5202 56.9118C56.9365 58.0882 56.061 58.8971 54.8937 59.3382C53.7264 59.7794 52.632 60 51.6106 60L47.8897 60C47.0142 60 46.3576 59.6324 45.9198 58.8971C45.4821 58.1618 45.4091 57.4265 45.701 56.6912L55.1126 35.0735C55.8421 33.4559 56.134 32.2059 55.9881 31.3235C55.6962 30.5882 54.9666 30.1471 53.7993 30L50.0785 29.7794C48.6193 29.6323 47.6708 29.2647 47.2331 28.6765C46.6494 28.2353 46.3576 27.4265 46.3576 26.25L46.3576 3.30881C46.3576 1.10293 47.306 -5.03347e-06 49.203 -5.1993e-06L74.3735 -7.39978e-06Z" fill="#14A8D5"/>
</svg>
