<svg width="53" height="41" viewBox="0 0 53 41" fill="none" xmlns="http://www.w3.org/2000/svg">
<path d="M19.6165 -5.43579e-05C20.8072 -5.4462e-05 21.4026 0.644896 21.4026 1.93481L21.4026 16.5207C21.4026 17.1161 21.2537 17.6618 20.9561 18.1579L8.30502 38.3996C7.8089 39.1934 7.16394 39.7391 6.37015 40.0368C5.57636 40.3344 4.83218 40.4833 4.13761 40.4833L1.60741 40.4833C1.01206 40.4833 0.565556 40.2352 0.267883 39.7391C-0.0297853 39.243 -0.0793993 38.7469 0.119049 38.2507L6.66782 23.6648C7.06472 22.5734 7.21355 21.73 7.11432 21.1346C6.91588 20.6385 6.41976 20.3408 5.62597 20.2416L3.09576 20.0928C2.10353 19.9936 1.45857 19.7455 1.1609 19.3486C0.764006 19.0509 0.565557 18.5052 0.565557 17.7114L0.565556 2.23248C0.565556 0.744122 1.21051 -5.27488e-05 2.50042 -5.28616e-05L19.6165 -5.43579e-05ZM50.5744 -5.70643e-05C51.7651 -5.71684e-05 52.3604 0.644894 52.3604 1.9348L52.3604 16.5207C52.3604 17.1161 52.2116 17.6618 51.9139 18.1579L39.114 38.3996C38.7171 39.1934 38.1218 39.7391 37.328 40.0368C36.5342 40.3344 35.79 40.4833 35.0955 40.4833L32.5653 40.4833C31.9699 40.4833 31.5234 40.2352 31.2257 39.7391C30.9281 39.243 30.8784 38.7469 31.0769 38.2507L37.4768 23.6648C37.973 22.5734 38.1714 21.73 38.0722 21.1346C37.8737 20.6385 37.3776 20.3408 36.5838 20.2416L34.0536 20.0928C33.0614 19.9935 32.4164 19.7455 32.1187 19.3486C31.7218 19.0509 31.5234 18.5052 31.5234 17.7114L31.5234 2.23248C31.5234 0.74412 32.1684 -5.54552e-05 33.4583 -5.5568e-05L50.5744 -5.70643e-05Z" fill="white"/>
</svg>
